<?xml version="1.0" ?><svg id="Layer_1" style="enable-background:new 0 0 1024 1024;" version="1.1" viewBox="0 0 1024 1024" xml:space="preserve" xmlns="http://www.w3.org/2000/svg" xmlns:xlink="http://www.w3.org/1999/xlink"><g id="XMLID_358_"><path d="M948.7,503.9c-46-71.8-109.7-131.8-184.1-173.4c-76.8-42.9-164.1-65.6-252.6-65.6   c-88.5,0-175.8,22.7-252.6,65.6C185,372.1,121.3,432.1,75.3,503.9l-5.2,8.1l5.2,8.1c46,71.9,109.7,131.8,184.1,173.4   c76.8,42.9,164.1,65.6,252.6,65.6c88.5,0,175.8-22.7,252.6-65.6c74.4-41.6,138.1-101.6,184.1-173.4l5.2-8.1L948.7,503.9z    M512,663.5c-83.5,0-151.5-68-151.5-151.5s68-151.5,151.5-151.5s151.5,68,151.5,151.5S595.5,663.5,512,663.5z" id="XMLID_362_"/><path d="M519,398.5v40c-41,0-74.1,33.5-74.1,74.5h-40C404.9,450,456,398.5,519,398.5z" id="XMLID_361_"/></g><g id="XMLID_1_"/><g id="XMLID_2_"/><g id="XMLID_3_"/><g id="XMLID_4_"/><g id="XMLID_5_"/></svg>